<svg width="813" height="828" viewBox="0 0 813 828" fill="none" xmlns="http://www.w3.org/2000/svg">
<path d="M323.453 12.3866C354.64 1.58664 388.253 -1.05336 421 1.8533C431.827 2.22664 441.893 11.0933 443.213 21.8933C445.413 35.9466 436.533 49.96 423.773 55.5466C406 64.2266 385.8 66.4933 366.24 65.5733C352.64 64.8533 338.067 62.1466 327.707 52.6266C323.707 48.7066 319.413 43.9333 319.48 37.9733C319.413 33.9733 323.32 31.72 326.28 29.8266C344.32 19.4666 367.427 18.8533 386.293 27.4133C388.453 28.56 391.293 29.68 391.76 32.4133C379.64 41.7066 363.347 38.5333 349.387 36.5333C354.347 42.04 361.987 43.6533 369 44.7333C377.893 45.8666 387.28 44.44 395.133 40C399.387 37.6933 402.147 31.8933 399.48 27.4266C395.667 20.68 387.813 17.9733 381 15.3066C362.64 8.38664 341.6 9.74664 324.013 18.28C318 21.1333 311.68 24.8933 309.173 31.4266C305.693 38.9333 308.72 47.5066 313.12 53.92C320.973 65.6533 334.4 72.2266 347.827 75.2666C370.747 80.1066 395.04 78.1466 417.093 70.32C427.333 66.32 438.08 61.4 444.6 52.12C450.92 43.3466 454.373 32.0533 452.347 21.28C451.507 16.12 447.947 11.7333 447.973 6.39997C468.147 11.4933 488.933 19.9333 502.173 36.7466C510.147 46.5466 511.333 60.6 506.72 72.1466C504.427 77.6266 501.973 83.5066 497.067 87.1733C488.493 93.5866 479.64 99.72 470 104.453C452.573 113.08 433.52 117.933 414.32 120.56C381.16 124.84 347.613 123.6 314.32 121.92C304.8 121.467 295.333 119.2 286.867 114.8C281.773 112.067 276.107 109.92 272.16 105.533C265.88 98.76 261.293 90.0266 260.907 80.6666C259.987 64.52 267.147 48.3333 279.053 37.5066C291.653 25.8533 307.4 18.1333 323.453 12.3866Z" fill="#8422D9"/>
<path d="M205.333 49.12C222.213 46.9066 240.747 48.0933 255.173 58.0266C254.173 65.0933 252.28 72.1733 253.16 79.3466C254.013 86.2266 256.213 93.04 260.2 98.76C262.013 101.28 263.387 104.093 263.96 107.173C249.133 106.627 234.36 108.147 219.787 110.773C207.427 112.693 194.96 115.64 182.387 114.307C177.693 113.933 172.667 111.587 170.88 106.96C169.08 100.747 170.293 93.72 174.093 88.4666C184.24 73.04 206.693 68.6933 222.773 76.68C223.04 82.7466 218.12 86.7333 213.093 88.96C207.107 91.8666 200.427 92.7333 194.08 94.52C203.187 94.9466 212.6 92.9866 220.293 87.9466C223.613 85.7466 226.48 82.12 226.44 77.9733C225.48 73.4266 221.027 70.88 216.893 69.6933C196.64 62.8533 171.187 73.72 164.347 94.52C160.987 103.067 164.387 113.933 172.533 118.453C180.747 123.053 190.573 123.12 199.667 121.96C220.48 119.413 241.32 114.707 262.387 116.747C270.533 117.507 278.96 120.147 284.747 126.2C291.613 133.173 293.813 143.24 294.84 152.64C297.427 182.653 289.2 212.747 275.573 239.307C266.573 256.48 254.613 272.4 239.16 284.293C227.893 292.907 214.027 298.533 199.707 298.347C174.267 299.147 148.613 287.507 133 267.32C124.12 256.08 119.8 241.6 120.68 227.333C121.16 191.107 153.347 159.507 189.12 157.533C200.507 156.893 212.373 157.893 222.76 162.933C229 166.053 234.893 171.853 234.827 179.307C235.733 190.72 228.747 200.867 220.76 208.293C211.533 216.88 199.187 223.32 186.24 221.867C176.907 221.533 168.307 214 167.227 204.64C165.707 196.92 169 189.573 173.547 183.56C167.76 188.427 163.44 195.6 163.8 203.36C164.507 211.96 169.667 220.293 177.573 224.027C185.147 227.933 194.2 228.173 202.187 225.413C219.96 219.733 236 205.973 241.293 187.693C244.453 177.8 240.213 166.587 232.227 160.267C224.493 154.16 214.787 151.253 205.213 149.587C190.093 146.907 174.387 149.867 160.507 156.133C157.987 157.253 155.267 158.12 152.493 157.573C141.573 155.893 130.76 152.667 121.04 147.333C113.72 143.413 108.533 135.68 108.187 127.32C107.933 120.987 108.413 113.56 113.6 109.147C134.493 89.2533 157.36 71.4266 181.84 56.16C188.893 51.7733 197.307 50.5333 205.333 49.12Z" fill="#8422D9"/>
<path d="M499.347 105.693C512.373 90.44 532.2 82.56 551.76 80.3333C574.8 78.4267 596.493 89.68 614.333 103.24C625.093 111.947 636.56 121.24 641.773 134.52C647.907 150.453 644.84 169.627 633.813 182.72C627.053 191.04 617.267 197.44 606.347 198.093C594.48 199.16 582.6 194.28 573.973 186.267C567.253 179.4 562.8 170.613 559.76 161.573C557.453 154.52 556.32 146.893 557.72 139.547C558.893 134.6 562.453 129.64 567.613 128.427C574.48 127.573 580.707 131.6 585.68 135.907C594.333 143.6 601.933 153.133 605.253 164.387C606.08 168.36 607.013 173.467 603.587 176.52C600.747 178.68 596.987 178.867 593.653 179.88C598.453 181.947 604.627 181.44 607.827 176.907C612.253 170.173 609.533 161.733 606.747 154.92C601.627 143.627 593.893 133.133 583.44 126.267C577.187 122.307 568.933 119.16 561.893 123.053C551.987 127.773 548.36 139.853 549.253 150.093C550.667 164.48 556.413 178.44 565.24 189.867C571.987 198.467 582.373 202.72 592.093 206.987C605.067 213.707 619.773 217.147 634.4 216.427C646.907 215.853 659.12 212.107 671.707 212.72C691.173 213.84 710.227 219.76 727.387 228.933C744.387 237.733 758.88 251.307 768.613 267.787C780.213 287.213 785.16 310.213 783.64 332.72C782.467 355.213 778.04 379.44 762.013 396.387C750.973 408.507 734.453 414.373 718.293 414.267C703.573 414.173 687.867 412.307 675.533 403.587C670.76 400.427 666.253 396.907 661.853 393.28C658.64 365.667 646.413 339.573 628.52 318.44C626.267 315.72 623.64 312.947 623.267 309.267C620.813 293.747 627.44 278.107 637.627 266.64C640.907 263.12 644.16 258.973 649.067 257.787C666.267 253.04 684.44 248.533 702.28 252.2C716.707 255.147 727.933 266.133 735.427 278.28C742.52 290.28 748.76 303.827 747.307 318.133C746.813 329.307 737.747 339.893 726.333 340.68C711.533 342.213 698.16 332.613 689.427 321.52C684.787 315.613 683.547 307.373 685.973 300.307C688.24 294.347 694.6 290.093 701.053 291.04C706.68 291.253 710.307 296.067 714.613 299C712.053 289.36 700.253 284.12 691.32 288.427C682.813 291.68 678.813 301.36 679.053 309.933C679.747 319.56 685.347 328.2 692.387 334.507C699.467 340.72 707.733 346.053 717.12 347.88C729.587 350.707 743.8 345.36 750.52 334.307C757.2 323.92 757.693 310.693 754.493 299.04C751.093 286.867 745.4 275.307 737.973 265.093C729.507 253.24 716.573 244.613 702.253 241.747C684.387 237.88 666.147 242.227 648.84 246.707C622.6 253.6 596.613 263.973 569.067 263.48C545.107 263.253 520.973 251.6 507.76 231.307C506.44 226.107 506.72 220.627 506.08 215.307C504.413 196.253 501.307 176.027 489.107 160.587C487.16 157.693 483.387 155.28 483.987 151.347C484.773 135.213 488.44 118.173 499.347 105.693Z" fill="#8422D9"/>
<path d="M620.627 91.6266C644.44 92.28 667.013 102.8 684.88 118.16C696.88 128.547 707.48 140.773 714.933 154.84C717.6 160.373 720.533 166.387 719.613 172.707C717.28 176.093 712.587 175.56 709.013 175.493C695.267 174.76 684.773 164.067 677.36 153.427C670.693 144.12 668.24 132.84 665.693 121.92C661.4 128.067 662.88 136 664.387 142.827C668.587 159.093 678.84 174.44 693.893 182.44C702.84 186.693 713.933 189.227 723.173 184.413C724.773 183.693 728.16 181.653 728.573 184.68C730.293 195.013 731.013 206.133 727.133 216.08C709.587 208.453 690.813 203.147 671.6 202.587C654.013 202.467 636.933 210.613 619.267 207.44C619.613 204.68 622.44 203.947 624.493 202.76C640.347 195.213 651 179.187 654.453 162.253C657.733 147.32 654.027 131.333 645.587 118.72C639.96 110.307 632.373 103.467 624.587 97.1066C622.707 95.72 621.48 93.7466 620.627 91.6266Z" fill="#8422D9"/>
<path d="M335.72 153.947C358.973 138.053 388.093 132.387 415.88 135.053C434.707 137.067 453.373 144.12 467.52 156.96C483.053 170.733 491.76 191.093 493.56 211.56C495.027 225.827 494.507 241.08 487.613 253.987C480.093 267.92 465.907 277.427 450.64 280.907C434.973 284.44 417.773 283.293 403.573 275.4C392.04 269.027 382.36 258.373 379.173 245.387C375.733 230.6 379.507 214.707 387.88 202.227C390.96 198.067 394.6 193.693 399.787 192.253C405.027 191.16 411.133 191.92 415.053 195.88C420.373 200.747 421.76 208.4 421.4 215.307C421.16 224.013 417.547 232.747 410.827 238.427C406.72 242.28 400.947 243.2 396.16 245.88C405.533 246.973 414.84 242.027 420.013 234.307C427.907 222.813 429.92 206.4 421.973 194.413C415.947 185.333 402.573 182.213 393.093 187.547C385.387 191.64 380.387 199.253 376.573 206.853C370.587 219.2 367.28 233.613 370.947 247.147C373.147 255.56 372.773 264.493 375.893 272.707C386.907 304.947 409.32 331.307 427.2 359.8C437.8 376.64 440.933 397.773 436.12 417.053C430.027 441.16 413.267 461.28 393.6 475.867C373.867 490.693 349.507 498.547 325.04 500.36C294.96 502.613 263.813 496.853 237.747 481.307C217.84 469.4 204.24 448.48 199.427 425.973C194.72 403.973 197.013 379.853 208.747 360.347C220.427 340.64 240.787 327.053 262.8 321.547C287.2 315.547 313.507 317.187 336.947 326.253C342.467 328.72 349.067 330.293 352.72 335.533C365.053 352.213 376.827 371.253 376.6 392.733C376.92 424.707 346.267 453.24 314.28 449.96C293.933 449.213 275.693 430.64 276.947 409.987C276.68 388.667 295.853 369.867 316.907 369.453C325.173 368.8 334 377.053 330.893 385.573C327.213 394.093 319.973 401.947 310.32 403.187C317.213 406.467 324.093 401.32 328.707 396.52C333.853 391.16 338.64 383.227 335.267 375.707C331.96 366.893 321.907 362.4 312.933 363.4C301.507 364.707 290.72 370.24 282.4 378.08C274.107 387.053 269.04 399.107 268.72 411.347C268.707 426.173 275.96 440.947 288.013 449.653C297.853 456.84 310.253 460.227 322.373 459.653C339.56 458.707 356.187 450.853 368.12 438.493C380.707 425.24 388.267 406.933 387.427 388.56C386.507 375.027 381.92 361.947 375.453 350.107C367.747 336.053 357.627 323.56 348.36 310.547C333.893 290.453 318.387 270.64 308.88 247.56C302.213 231.653 299.507 213.64 303.6 196.707C308.093 178.853 320.867 164.24 335.72 153.947Z" fill="#8422D9"/>
<path d="M78.4001 163.32C86.3601 154.667 96.32 147.733 107.387 143.667C116.253 153.733 129.827 157.307 142.48 159.827C144.307 159.96 145.653 161.187 146.88 162.427C129.187 174.373 116.16 193.08 111.6 213.987C110.067 219.787 110.24 225.84 109.253 231.72C105.013 234.347 100.16 235.813 95.7867 238.2C68.4667 252.373 44.6667 273.133 26.4667 297.907C23.8134 301.253 21.9867 305.373 18.5467 308.013L16.7867 307.627C15.7867 285.373 19.36 262.733 27.6667 242.027C33.7067 226.987 43.6667 213.333 57.1867 204.213C59.84 208.56 62.2 214.133 67.6667 215.467C73.7334 217.48 79.8667 214.293 84.8934 211.133C96.24 203.76 106.933 194.347 112.867 181.973C115.16 176.453 117.627 169.24 113.493 163.987C109.4 159.933 102.84 162.107 99.0934 165.56C93.44 170.693 87.7467 176.227 84.8267 183.44C93.7867 179.573 98.9867 168.987 109.16 167.92C108.747 173.12 107.36 178.333 104.16 182.533C97.8134 191.24 89.5067 198.4 80.4667 204.2C77.2 206.24 73.36 208.467 69.36 207.267C65.3867 204.213 65.3867 198.613 65.24 194.08C64.9867 182.48 70.7601 171.68 78.4001 163.32Z" fill="#8422D9"/>
<path d="M89.04 248.747C95.7466 244.533 102.027 239.187 109.827 237.147C112.28 259.44 125.267 279.947 143.813 292.387C156.56 301.573 171.72 306.48 186.96 309.507C197.76 319.547 202.72 334.347 204.227 348.707C188.64 369.907 183.067 397.467 187.213 423.28C170.427 435.827 157.76 452.973 147.467 471.04C133.627 494.92 126.827 523.147 129.827 550.693C132.147 571.08 138.987 591.213 151.24 607.8C162.76 623.987 180.253 636.187 199.893 639.96C213.053 642.587 227.347 637.907 236.627 628.253C246.973 617.147 251.2 600.427 246.56 585.867C241.2 568.093 227.227 553.267 210.213 546.093C197.293 540.52 180.773 547.747 175.893 560.88C173.8 565.827 173.427 571.8 176.667 576.36C177.733 572.12 177.96 567.627 179.853 563.653C183.667 556.533 191.453 551.253 199.72 551.773C207.227 551.867 213.467 556.787 218.907 561.453C229.347 570.64 238.08 583.467 237.667 597.907C237.813 609.373 231.133 620.573 220.947 625.853C212.907 630 203.227 629.387 194.88 626.52C179.52 621.493 167.053 610.027 158.133 596.84C140.413 570.133 136.667 535.787 144.04 505C148.067 488.2 156.093 472.693 165.027 458.027C171.107 448.333 177.893 438.987 185.84 430.747C187.147 429.133 189.28 430.373 189.24 432.267C193.667 448.92 201.707 464.787 213.72 477.267C224.787 488.907 239.347 496.467 254.133 502.293C258.667 504.24 264.133 504.787 267.613 508.613C284.88 526.867 298.04 548.92 306.36 572.6C313 591.827 316.44 612.907 311.827 632.973C307.733 650.653 293.907 664.187 278.92 673.4C259.053 685.227 236.133 692.067 213.013 692.787C185.347 693.52 158.947 681.053 138.013 663.693C110.107 640.307 88.64 607.733 83.4266 571.24C77.6933 532.067 83.0533 491.68 96.16 454.467C98.2 447.853 103.907 443.493 107.573 437.84C120.2 419.413 127.347 397.467 129.307 375.28C130.667 359.467 128.16 342.667 118.947 329.4C110.6 316.96 94.88 309.387 79.9466 312.187C67.7866 314.493 56.1733 320.973 48.5333 330.827C39.1733 343.08 35.52 358.84 35.6266 374.04C35.8133 381.92 36.8666 390.573 42.3466 396.693C48.08 402.88 57.9066 403.16 64.9733 399.133C72.5466 394.867 79.12 387.48 80.9333 378.84C73.3333 385.493 66.9866 396.213 55.5866 395.893C48.72 396.413 44.1066 389.693 43.8266 383.467C42.4666 366.987 45.08 348.84 56.2666 335.973C64.8133 326.2 78.24 320.187 91.28 322.427C101.067 324.253 108.693 332.013 113.027 340.64C118.853 352.347 118.587 365.907 117.333 378.6C114.613 399.947 106.8 421.173 92.5866 437.587C84.3066 447.013 74.1333 455.24 62.08 459.173C52.48 462.133 41.0666 461.787 32.9733 455.24C20.6533 445.667 15.1066 430.24 11.24 415.667C4.97329 388.76 5.49329 359.467 16.8933 333.96C31.9866 299.32 58.3466 270.373 89.04 248.747Z" fill="#8422D9"/>
<path d="M471.24 298.947C495.093 285.52 523.347 280.427 550.44 283.907C564.413 285.773 578.053 290.56 589.84 298.347C610 311.827 626.16 330.933 637.32 352.373C646.787 370.48 650.76 391.027 650.867 411.347C650.933 427.533 649.573 443.867 645.173 459.507C639.28 481.467 630.56 503.08 629.893 526.08C629.773 541.16 633.147 557.253 643.493 568.76C651 577.067 663.08 582.36 674.187 578.84C683.773 575.853 692.347 570.093 699.56 563.187C714.2 548.36 723.373 528.2 724.747 507.387C725.093 500.36 724.133 492.907 720.187 486.933C715.2 479.547 704.667 476.787 696.573 480.36C688.68 483.533 683.68 491.04 680.147 498.44C675 510.013 672.093 522.667 671.84 535.347C672.04 540.333 672.4 546.973 677.48 549.52C681.76 551.667 686.16 548.44 689.067 545.507C685.187 545.68 678.347 549.147 677.253 543.253C675.987 530.68 679.493 518.08 684.107 506.48C686.853 499.987 690.587 493.587 696.387 489.36C701.493 485.52 710.16 486.4 713.373 492.293C715.893 496.893 715.613 502.387 715.373 507.467C713.56 529.133 701.747 549.88 683.88 562.307C677.2 566.88 668.653 570.947 660.547 567.653C650.08 562.76 644.227 551.427 642.64 540.4C639.293 519.56 645.667 498.96 651.773 479.267C653.947 472.92 654.627 465.667 659.533 460.667C668.827 450.36 678.027 439.173 690.8 433.08C701.613 427.827 715.08 429.893 724.413 437.267C738.467 447.867 744.787 465.653 746.827 482.573C749.347 506.307 744.88 530.373 736.84 552.707C727.787 577.533 713.44 600.96 692.987 618C677.787 630.72 658.373 639.067 638.36 638.88C627.187 639.013 615.88 636.04 606.6 629.747C588.707 617.48 576.213 597.933 572.027 576.693C566.707 550.667 566.48 523.6 570.787 497.4C572.027 491.56 572.6 485.44 575.12 479.973C578.267 476.44 582.253 473.747 585.187 470C608.067 442.213 610.267 399.013 589.427 369.493C580.347 356.587 564.773 348.373 548.973 348.547C529.067 349.52 512.987 369.187 514.893 388.773C516.093 397.96 521.44 407.627 530.76 410.507C534.573 412.04 538.627 410.773 542.28 409.453C537.56 407.093 531.4 407.68 527.947 403.093C517.907 392.373 521.787 374.347 532.453 365.48C538.173 359.933 546.507 357.48 554.32 359.067C567.6 361.013 578.493 370.893 584.347 382.6C591.573 396.773 593.04 413.333 590.787 428.92C587.987 446.587 578.64 464.08 562.893 473.36C551.493 480.053 537.653 480.373 524.88 478.88C509.587 476.907 494.693 471.2 482.347 461.92C468.427 450.907 456.6 437.053 448.573 421.187C446.147 417.347 447.8 412.853 448.173 408.72C450.84 387.96 443.72 367.04 431.96 350.08C434.853 338.107 440.16 326.627 448.08 317.133C454.373 309.467 462.707 303.827 471.24 298.947Z" fill="#8422D9"/>
<path d="M792.307 357.907C793.133 355.413 792.773 351.987 795.36 350.52C806.027 359.013 813.16 372.213 812.947 386.013C813.28 395.747 809.84 405.08 805.067 413.4C800.76 412.253 796.053 410.68 791.72 412.56C784.533 415.36 780.813 422.64 777.373 429.04C768.067 446 763.533 465.427 763.707 484.72C763.947 490.88 765 498.12 770.307 502.053C773.827 504.747 778.853 503.147 781.347 499.827C785.533 494.213 787.373 487.28 788.987 480.573C791.293 469.053 793.253 457.067 791.053 445.36C789.707 447.96 788.96 450.787 788.627 453.693C787.213 464.72 785.267 475.76 781.493 486.253C780.053 489.933 778.573 493.893 775.4 496.453C773.027 496.827 772.4 494.24 771.827 492.507C770.467 485.947 771.307 479.187 771.893 472.6C773.613 455.92 779.573 439.773 788.787 425.787C790.853 423.187 793.28 419.613 797.08 420.107C801.067 420.173 803.427 424.067 804.973 427.267C808.84 436.52 809.027 446.787 809.133 456.667C808.853 469 808.16 481.773 802.933 493.173C794.787 511.64 780.32 526.533 764.333 538.493C760.72 541.36 756.84 544.013 752.36 545.347C753.493 535.707 756.64 526.413 757.573 516.733C761.28 491.293 757.747 463.827 743.12 442.173C743.88 435.187 744.627 428.08 747.067 421.427C748.427 417.04 753.52 416.173 756.907 413.853C776.973 402.307 787.987 379.92 792.307 357.907Z" fill="#8422D9"/>
<path d="M9.06665 447.093C11.8133 447.72 12.8267 450.613 14.3867 452.627C20.68 462.427 30.8 469.813 42.24 472.2C55 474.947 68.2667 470.867 79.2267 464.32C81.5067 463.133 83.6933 461.253 86.44 461.64C86.24 463.347 85.9067 465.04 85.4267 466.707C73.68 500.093 68.4133 536.2 72.9867 571.44C74.0267 580.44 76.5867 589.147 78.4 598.013C60.32 596.16 46.8133 581.507 37.1733 567.267C46.1333 559.84 48.56 547.72 48.9733 536.667C49.1733 521.8 45.0666 506.747 36.7333 494.387C33.2533 488.88 25.9466 483.24 19.5466 487.733C23.76 488.613 28.28 489.893 30.6133 493.867C40 507.853 42.84 525.533 40.8533 542.053C40 547.48 38.9333 553.307 35.2667 557.627C33.64 560.107 30.2133 558.867 28.4 557.267C20.9466 551.213 15.76 542.88 11.4666 534.413C6.85332 525.053 2.58665 515.293 1.23998 504.867C-0.880017 489.227 0.466649 473.16 4.78665 458C5.87998 454.253 6.90665 450.387 9.06665 447.093Z" fill="#8422D9"/>
<path d="M418.787 470.413C434.347 462.547 452.893 461.92 469.427 466.947C478.8 469.387 485.267 477.347 494.24 480.707C504.547 484.587 512.12 492.893 519.627 500.587C539.667 522.44 553.613 550.813 554.853 580.733C555.893 600.413 550.867 620.547 539.52 636.76C527.293 654.293 509.947 667.813 490.907 677.253C471.48 686.8 450.507 692.8 429.32 696.92C401.48 701.96 372.493 702.84 346.013 713.667C331.013 719.907 316.493 729.613 308.48 744.133C303.92 752.28 302.653 762.453 306.52 771.133C312.547 785.88 327.08 794.893 341.373 800.373C356.32 805.72 373.68 808.6 388.56 801.547C398.733 797.053 405.2 783.987 400.213 773.547C395.347 762.76 382.747 758 371.6 757.6C361.973 757.773 351.587 760.36 344.84 767.667C352 766.08 358.813 762.68 366.307 762.867C376.693 762.28 388.68 766.04 393.747 775.813C397.293 784.307 390.467 793.44 382.173 795.44C369.68 798.64 356.36 796.24 344.547 791.6C333.693 787.16 323.107 780.32 317.16 769.933C312.547 761.453 315.147 750.76 321.56 743.96C336.893 725.72 361.08 719.053 383.707 715.533C395.827 712.733 408.227 715.147 420.413 716.16C436.333 717.76 451.773 726.347 460.093 740.24C465.467 749.107 465.907 760.093 463.68 769.987C460.48 783.12 452.613 794.68 443.107 804.08C433.493 813.613 421.6 821.28 408.227 824.133C398.853 826.08 389.347 828.213 379.707 827.68C364.907 826.867 350.147 825.347 335.52 823.013C327.72 821.747 319.72 820.72 312.48 817.32C293.147 809.013 274.547 796.68 263.227 778.52C254.133 764.08 254 745.52 259.88 729.853C268.973 706.173 288 686.827 310.533 675.56C324.013 669.493 337.707 663.627 352.093 660.053C359.787 658.04 367.76 657.733 375.613 656.667C381.84 655.587 388.013 657.72 394.253 657.747C413.707 658.2 433.787 652.973 449.32 640.947C460.653 632.253 468.333 619.08 470.453 604.96C472.293 593.267 471.187 580.52 464.667 570.36C458.08 560.133 444.933 555.627 433.2 557.44C415.28 560.093 398.4 573.013 393.827 590.973C391.96 597.36 392.28 604.28 394.92 610.413C397.333 604.187 396.613 597.173 399.547 591.107C406.733 575.173 424.8 564.16 442.347 566.96C451.12 568.213 458.013 575.92 459.347 584.52C461.253 596.68 459.8 610 452.693 620.36C443.147 634.32 426.8 642.24 410.387 644.613C393.347 646.987 375.053 645.253 360.04 636.333C350.707 631.027 343.787 622.213 339.947 612.28C332.267 592.933 331.467 571.48 334.08 551.04C336.2 536.68 340.627 522.213 349.56 510.587C351.267 508.013 354.4 507.347 357.16 506.493C376.027 501.227 393.627 491.573 408.427 478.76C411.8 475.893 414.8 472.467 418.787 470.413Z" fill="#8422D9"/>
<path d="M730.507 592.72C733.747 587.96 735.72 582.36 739.68 578.107C743.4 581.96 743.24 587.827 744.04 592.8C745.92 616.4 738.533 639.587 729.373 661.027C723.507 673.587 716.8 686.08 707 696.053C698.72 704.627 690.347 713.133 681.48 721.107C666.2 735.88 646.32 744.747 626.36 751.267C615.493 754.307 604.427 757.667 593.067 757.747C592.747 754.907 595.16 753.04 596.853 751.16C600.933 747.213 604.267 742.267 609.48 739.693C621.24 733.387 632.96 726.173 641.147 715.387C652.4 702.573 656.667 685.453 667.093 672.067C673.56 663.667 681.813 654.853 693.013 653.813C696.16 653.68 700.933 652.867 702.307 656.653C703.32 661.907 700.64 666.853 698.24 671.333C691.44 683.52 682.507 694.533 672.12 703.84C669.72 706.28 666.387 707 663.08 706.72C662.867 701.213 665.053 696.16 667.52 691.387C660.827 694.227 655.787 703.813 660.88 710.107C665.48 714.52 672.147 711.067 676.44 707.973C689.2 698.027 699.693 685.187 707.173 670.867C710.067 665.333 712.253 658.48 709.333 652.52C706.92 646.787 700.067 644.893 694.373 645.253C682.56 645.853 672.013 652.84 664.613 661.72C656.573 671.173 651.04 682.4 645.96 693.64C641.253 704.213 634.187 713.6 625.96 721.693C623.667 724.08 620.693 725.653 617.6 726.773C617.907 720.28 621.787 714.813 623.587 708.72C627.587 696.2 630.28 683.147 630.627 669.987C630.88 663.213 628.107 657 625.92 650.773C627.547 649.32 629.8 650.187 631.76 650.173C647.533 651.96 663.52 648.16 677.827 641.627C700.027 631.387 717.733 613.28 730.507 592.72Z" fill="#8422D9"/>
<path d="M553.04 642.16C566.667 637.48 581.587 636.347 595.707 639.213C606.813 641.533 618.053 648.48 621.56 659.827C624.427 670.667 621.813 681.973 619.747 692.733C615.44 713.187 605.173 732.467 589.48 746.44C576.427 758.04 561.907 770.933 543.573 771.893C533.747 772.373 522.36 771.44 515.44 763.533C510.227 758.213 511.493 749.933 513.573 743.507C517.853 731.84 526.907 722.227 537.507 715.973C544.707 712.307 552.667 708.547 560.96 709.587C563.813 710.84 562.947 714.213 562.6 716.653C561.107 722.573 556.307 726.813 553.533 732.107C560.24 729.013 565.32 722.64 567.093 715.507C568.16 711.707 566.773 706.893 562.907 705.293C556.813 702.72 550.147 704.987 544.173 706.787C527.427 712.04 512.907 724.827 506.733 741.4C504.387 747.96 502.893 755.467 505.747 762.12C508.813 770.373 516.76 775.72 524.933 778.107C537.293 781.747 550.933 780.84 562.68 775.547C566.28 773.933 569.627 771.827 573.32 770.4C573.867 770.92 574.973 771.96 575.533 772.48C564.52 787.107 547.88 796.88 530.413 801.8C508.24 807.893 484.427 804.88 463.173 796.773C468.827 785.933 474.147 774.44 474.44 761.973C474.907 749.787 470.093 737.8 462.053 728.733C462.32 718.893 464.067 708.48 470.453 700.64C472.173 698.267 474.827 696.907 477.52 695.92C502.04 686.84 525.413 672.893 542.24 652.587C545.547 648.853 547.813 643.533 553.04 642.16Z" fill="#8422D9"/>
<path d="M108.653 653.693C110.573 653.813 112.107 654.947 113.333 656.347C132.48 677.653 157.36 694.467 185.307 701.613C207.493 707.773 231.04 704.653 252.68 697.773C258.147 696.227 263.187 693.2 268.92 692.653C269.48 695.28 267.573 697.267 266.08 699.16C254.667 712.8 246.52 729.587 244.76 747.413C244 754.2 245.133 760.973 245.907 767.693C230.053 767.293 213.96 763 201.12 753.453C204.4 748.773 206.947 742.747 204.307 737.147C199.093 725.28 187.573 718 177.027 711.333C170.093 707.24 162.773 702.627 154.48 702.48C151.32 702.293 148.373 705.507 150.067 708.6C152.507 714.12 156.933 718.96 162.587 721.28C160.427 716.84 156.587 713.213 155.493 708.293C159.667 707.827 163.307 710.267 166.76 712.24C175.573 717.853 184.347 723.787 191.48 731.507C194.653 735.027 198.533 739.373 197.2 744.507C195.387 749.347 189.293 749.293 185 749.747C173.027 750.867 161.68 745.56 152.013 738.987C140.84 731.227 131.293 721.107 124.267 709.467C117.587 698.427 114.227 685.84 111.24 673.413C110 666.907 108.013 660.373 108.653 653.693Z" fill="#8422D9"/>
</svg>
